HIERARCHY
ROOT Hips
{
	OFFSET 0.000000 0.000000 0.000000
	CHANNELS 6 Xposition Yposition Zposition Zrotation Yrotation Xrotation 
	JOINT LHipJoint
	{
		OFFSET 0.000000 0.000000 0.000000
		CHANNELS 3 Zrotation Yrotation Xrotation
		JOINT LeftUpLeg
		{
			OFFSET 1.363060 -1.794630 0.839290
			CHANNELS 3 Zrotation Yrotation Xrotation
			JOINT LeftLeg
			{
				OFFSET 2.448110 -6.726130 0.000000
				CHANNELS 3 Zrotation Yrotation Xrotation
				JOINT LeftFoot
				{
					OFFSET 2.562200 -7.039590 0.000000
					CHANNELS 3 Zrotation Yrotation Xrotation
					JOINT LeftToeBase
					{
						OFFSET 0.157640 -0.433110 2.322550
						CHANNELS 3 Zrotation Yrotation Xrotation
						End Site
						{
							OFFSET 0.000000 0.000000 0.000000
						}
					}
				}
			}
		}
	}
	JOINT RHipJoint
	{
		OFFSET 0.000000 0.000000 0.000000
		CHANNELS 3 Zrotation Yrotation Xrotation
		JOINT RightUpLeg
		{
			OFFSET -1.305520 -1.794630 0.839290
			CHANNELS 3 Zrotation Yrotation Xrotation
			JOINT RightLeg
			{
				OFFSET -2.542530 -6.985550 0.000000
				CHANNELS 3 Zrotation Yrotation Xrotation
				JOINT RightFoot
				{
					OFFSET -2.568260 -7.056230 0.000000
					CHANNELS 3 Zrotation Yrotation Xrotation
					JOINT RightToeBase
					{
						OFFSET -0.164730 -0.452590 2.363150
						CHANNELS 3 Zrotation Yrotation Xrotation
						End Site
						{
							OFFSET 0.000000 0.000000 0.000000
						}
					}
				}
			}
		}
	}
	JOINT LowerBack
	{
		OFFSET 0.000000 0.000000 0.000000
		CHANNELS 3 Zrotation Yrotation Xrotation
		JOINT Spine
		{
			OFFSET 0.028270 2.035590 -0.193380
			CHANNELS 3 Zrotation Yrotation Xrotation
			JOINT Spine1
			{
				OFFSET 0.056720 2.048850 -0.042750
				CHANNELS 3 Zrotation Yrotation Xrotation
				JOINT Neck
				{
					OFFSET 0.000000 0.000000 0.000000
					CHANNELS 3 Zrotation Yrotation Xrotation
					JOINT Neck1
					{
						OFFSET -0.054170 1.746240 0.172020
						CHANNELS 3 Zrotation Yrotation Xrotation
						JOINT Head
						{
							OFFSET 0.104070 1.761360 -0.123970
							CHANNELS 3 Zrotation Yrotation Xrotation
							End Site
							{
								OFFSET 0.000000 0.000000 0.000000
							}
						}
					}
				}
				JOINT LeftShoulder
				{
					OFFSET 0.000000 0.000000 0.000000
					CHANNELS 3 Zrotation Yrotation Xrotation
					JOINT LeftArm
					{
						OFFSET 3.362410 1.200890 -0.311210
						CHANNELS 3 Zrotation Yrotation Xrotation
						JOINT LeftForeArm
						{
							OFFSET 4.983000 -0.000000 -0.000000
							CHANNELS 3 Zrotation Yrotation Xrotation
							JOINT LeftHand
							{
								OFFSET 3.483560 -0.000000 -0.000000
								CHANNELS 3 Zrotation Yrotation Xrotation
								JOINT LeftFingerBase
								{
									OFFSET 0.000000 0.000000 0.000000
									CHANNELS 3 Zrotation Yrotation Xrotation
									JOINT LeftHandIndex1
									{
										OFFSET 0.715260 -0.000000 -0.000000
										CHANNELS 3 Zrotation Yrotation Xrotation
										End Site
										{
											OFFSET 0.000000 0.000000 0.000000
										}
									}
								}
								JOINT LThumb
								{
									OFFSET 0.000000 0.000000 0.000000
									CHANNELS 3 Zrotation Yrotation Xrotation
									End Site
									{
										OFFSET 0.000000 0.000000 0.000000
									}
								}
							}
						}
					}
				}
				JOINT RightShoulder
				{
					OFFSET 0.000000 0.000000 0.000000
					CHANNELS 3 Zrotation Yrotation Xrotation
					JOINT RightArm
					{
						OFFSET -3.136600 1.374050 -0.404650
						CHANNELS 3 Zrotation Yrotation Xrotation
						JOINT RightForeArm
						{
							OFFSET -5.241900 -0.000000 -0.000000
							CHANNELS 3 Zrotation Yrotation Xrotation
							JOINT RightHand
							{
								OFFSET -3.444170 -0.000000 -0.000000
								CHANNELS 3 Zrotation Yrotation Xrotation
								JOINT RightFingerBase
								{
									OFFSET 0.000000 0.000000 0.000000
									CHANNELS 3 Zrotation Yrotation Xrotation
									JOINT RightHandIndex1
									{
										OFFSET -0.622530 -0.000000 -0.000000
										CHANNELS 3 Zrotation Yrotation Xrotation
										End Site
										{
											OFFSET 0.000000 0.000000 0.000000
										}
									}
								}
								JOINT RThumb
								{
									OFFSET 0.000000 0.000000 0.000000
									CHANNELS 3 Zrotation Yrotation Xrotation
									End Site
									{
										OFFSET 0.000000 0.000000 0.000000
									}
								}
							}
						}
					}
				}
			}
		}
	}
}
MOTION
Frames: 4
Frame Time: 0.016667
-0.035849 17.376565 0.186796 -2.893116 -3.209306 8.626058 10.800819 28.194988 -2.554483 -37.002172 -5.553984 -6.493841 -7.733106 -6.750465 -11.983327 0.839471 9.434815 30.560811 0.000000 0.000000 0.000000 -15.416806 -34.256466 4.652343 40.701303 7.367126 5.603586 -0.426101 -4.293096 31.349336 1.596015 6.120307 -14.959358 0.000000 0.000000 0.000000 1.984348 2.809576 8.384324 1.136288 2.289747 15.848150 2.152382 3.232353 -9.291546 8.254707 -1.015098 20.955613 -3.655653 0.005990 -11.300515 0.000000 0.000000 0.000000 9.273769 25.543661 -8.993127 -82.435021 -19.481903 0.869774 -7.128005 50.374374 0.408223 -4.931293 -13.600760 0.205598 -4.963549 -13.596715 0.000000 0.000000 0.000000 0.000000 0.000000 0.000000 0.000000 -15.151503 -21.563840 -1.461590 70.085833 14.529995 12.406883 40.080974 34.050938 0.183782 3.791454 16.321985 0.090171 3.782267 16.326191 0.000000 0.000000 0.000000 0.000000 0.000000 0.000000 0.000000 
-0.012191 17.282618 0.437820 -3.255561 -3.721122 9.589721 13.750971 32.596652 -1.379452 -40.863411 -6.347768 -5.718096 -7.603066 -7.098594 -9.569428 0.550175 7.128532 27.712593 0.000000 0.000000 0.000000 -19.395111 -38.811399 6.408975 44.852119 7.943338 7.651668 -2.432710 -2.202147 32.698771 1.319956 6.686738 -12.257449 0.000000 0.000000 0.000000 2.612629 3.137541 7.760016 0.515293 2.510303 14.630886 2.466093 3.189168 -7.276942 8.538421 -1.230894 25.734224 -3.911564 0.037822 -13.468637 0.000000 0.000000 0.000000 11.617600 27.527693 -9.084254 -79.128556 -20.099645 -0.529368 -30.585414 52.008532 0.004089 -5.480119 -13.882779 0.003082 -5.488286 -13.877857 0.000000 0.000000 0.000000 0.000000 0.000000 0.000000 0.000000 -17.528403 -23.005477 -1.994252 70.666022 14.332744 13.240937 44.056128 32.410574 0.276484 4.734629 19.200547 0.137055 4.740645 19.202181 0.000000 0.000000 0.000000 0.000000 0.000000 0.000000 0.000000 
0.029826 17.190490 0.688363 -3.651862 -4.163539 10.759458 16.597577 37.090296 -0.030804 -44.045978 -7.194050 -5.258400 -8.651165 -6.935438 -6.564483 0.406097 5.224931 24.861360 0.000000 0.000000 0.000000 -23.556772 -43.190828 8.319710 48.686232 8.272034 9.881209 -4.026501 -0.192060 33.808598 1.005574 7.181981 -9.334450 0.000000 0.000000 0.000000 3.444807 3.505843 7.311513 -0.203272 2.896980 12.262335 3.715071 3.039947 -3.971173 8.425098 -1.040329 30.017193 -4.426571 0.051048 -15.117571 0.000000 0.000000 0.000000 15.670610 29.476369 -7.472563 -75.170612 -17.312659 3.860624 -54.628515 35.408908 -0.477017 -3.811722 -11.941416 -0.238787 -3.787979 -11.945923 0.000000 0.000000 0.000000 0.000000 0.000000 0.000000 0.000000 -20.234985 -24.496843 -2.730929 70.891728 14.184683 14.208170 47.632132 32.149800 0.407855 5.612818 22.109496 0.204405 5.646765 22.106135 0.000000 0.000000 0.000000 0.000000 0.000000 0.000000 0.000000 
0.150670 17.226558 0.790368 -2.950939 -3.841574 9.941047 15.720570 35.388627 -1.430700 -43.123908 -5.713887 -4.123284 -9.809179 -5.711181 -6.022919 0.031513 5.723279 23.221787 0.000000 0.000000 0.000000 -23.760269 -41.040650 6.935724 47.884644 7.729000 10.170549 -3.561181 -1.132435 34.294387 1.491686 5.387650 -7.389604 0.000000 0.000000 0.000000 4.951606 3.641234 9.763025 -1.721808 2.904800 9.489914 5.091555 2.460027 -1.829652 7.923787 -0.837763 30.754894 -5.088380 -0.020193 -15.354517 0.000000 0.000000 0.000000 18.777480 30.119992 -4.831356 -73.294921 -14.783478 4.881185 -62.414842 20.659417 -0.477984 -2.094123 -9.217169 -0.239325 -2.072778 -9.223567 -0.000000 0.000000 0.000000 0.000000 0.000000 0.000000 0.000000 -21.479984 -25.747767 -2.828894 70.163640 13.276394 16.008746 49.730093 38.533408 0.395198 5.652422 21.026537 0.197507 5.682799 21.023532 0.000000 0.000000 0.000000 0.000000 0.000000 0.000000 0.000000 
